<svg id="visual" viewBox="0 0 960 540" width="960" height="540" xmlns="http://www.w3.org/2000/svg" xmlns:xlink="http://www.w3.org/1999/xlink" version="1.1"><rect x="0" y="0" width="960" height="540" fill="#ffffff"></rect><path d="M0 326L120 286L240 308L360 342L480 344L600 305L720 341L840 375L960 327L960 0L840 0L720 0L600 0L480 0L360 0L240 0L120 0L0 0Z" fill="#fcf6ff"></path><path d="M0 262L120 324L240 257L360 317L480 284L600 285L720 248L840 259L960 255L960 0L840 0L720 0L600 0L480 0L360 0L240 0L120 0L0 0Z" fill="#f7e8ff"></path><path d="M0 252L120 262L240 227L360 207L480 258L600 229L720 266L840 242L960 187L960 0L840 0L720 0L600 0L480 0L360 0L240 0L120 0L0 0Z" fill="#f2d9ff"></path><path d="M0 161L120 204L240 180L360 170L480 215L600 165L720 143L840 173L960 159L960 0L840 0L720 0L600 0L480 0L360 0L240 0L120 0L0 0Z" fill="#eccbff"></path><path d="M0 127L120 122L240 108L360 113L480 144L600 139L720 152L840 101L960 149L960 0L840 0L720 0L600 0L480 0L360 0L240 0L120 0L0 0Z" fill="#e7bcff"></path><path d="M0 81L120 74L240 69L360 53L480 58L600 86L720 69L840 73L960 91L960 0L840 0L720 0L600 0L480 0L360 0L240 0L120 0L0 0Z" fill="#e1aeff"></path></svg>