<svg id="visual" viewBox="0 0 960 540" width="960" height="540" xmlns="http://www.w3.org/2000/svg" xmlns:xlink="http://www.w3.org/1999/xlink" version="1.1"><rect x="0" y="0" width="960" height="540" fill="#ffffff"></rect><path d="M0 212L120 252L240 230L360 196L480 194L600 233L720 197L840 163L960 211L960 541L840 541L720 541L600 541L480 541L360 541L240 541L120 541L0 541Z" fill="#fcf6ff"></path><path d="M0 276L120 214L240 281L360 221L480 254L600 253L720 290L840 279L960 283L960 541L840 541L720 541L600 541L480 541L360 541L240 541L120 541L0 541Z" fill="#f3dbff"></path><path d="M0 286L120 276L240 311L360 331L480 280L600 309L720 272L840 296L960 351L960 541L840 541L720 541L600 541L480 541L360 541L240 541L120 541L0 541Z" fill="#eabfff"></path><path d="M0 377L120 334L240 358L360 368L480 323L600 373L720 395L840 365L960 379L960 541L840 541L720 541L600 541L480 541L360 541L240 541L120 541L0 541Z" fill="#e0a3ff"></path><path d="M0 411L120 416L240 430L360 425L480 394L600 399L720 386L840 437L960 389L960 541L840 541L720 541L600 541L480 541L360 541L240 541L120 541L0 541Z" fill="#d586ff"></path><path d="M0 457L120 464L240 469L360 485L480 480L600 452L720 469L840 465L960 447L960 541L840 541L720 541L600 541L480 541L360 541L240 541L120 541L0 541Z" fill="#c868ff"></path></svg>