<svg width="96" height="96" viewBox="0 0 96 96" fill="none" xmlns="http://www.w3.org/2000/svg">
<g filter="url(#filter0_d_0_1)">
<path fill-rule="evenodd" clip-rule="evenodd" d="M48 72C65.6731 72 80 57.6731 80 40C80 22.3269 65.6731 8 48 8C30.3269 8 16 22.3269 16 40C16 57.6731 30.3269 72 48 72Z" fill="white"/>
</g>
<path fill-rule="evenodd" clip-rule="evenodd" d="M56.6667 51.9769C55.1982 54.3064 51.8018 54.3064 50.3333 51.9769L42.6186 39.7399C41.0471 37.2471 42.8385 34 45.7854 34H61.2146C64.1615 34 65.9529 37.2471 64.3814 39.7399L56.6667 51.9769Z" fill="url(#paint0_linear_0_1)"/>
<path fill-rule="evenodd" clip-rule="evenodd" d="M39.3333 29.0231C40.8018 26.6936 44.1982 26.6936 45.6667 29.0231L53.3814 41.2601C54.9529 43.7529 53.1615 47 50.2146 47H34.7854C31.8385 47 30.0471 43.7529 31.6186 41.2601L39.3333 29.0231Z" fill="url(#paint1_linear_0_1)"/>
<defs>
<filter id="filter0_d_0_1" x="0" y="0" width="96" height="96" filterUnits="userSpaceOnUse" color-interpolation-filters="sRGB">
<feFlood flood-opacity="0" result="BackgroundImageFix"/>
<feColorMatrix in="SourceAlpha" type="matrix" values="0 0 0 0 0 0 0 0 0 0 0 0 0 0 0 0 0 0 127 0" result="hardAlpha"/>
<feOffset dy="8"/>
<feGaussianBlur stdDeviation="8"/>
<feColorMatrix type="matrix" values="0 0 0 0 0 0 0 0 0 0 0 0 0 0 0 0 0 0 0.0535402 0"/>
<feBlend mode="normal" in2="BackgroundImageFix" result="effect1_dropShadow_0_1"/>
<feBlend mode="normal" in="SourceGraphic" in2="effect1_dropShadow_0_1" result="shape"/>
</filter>
<linearGradient id="paint0_linear_0_1" x1="52.9912" y1="29.0449" x2="42.3544" y2="47.7008" gradientUnits="userSpaceOnUse">
<stop stop-color="#FFD7A9"/>
<stop offset="1" stop-color="#FFAE70"/>
</linearGradient>
<linearGradient id="paint1_linear_0_1" x1="44.3521" y1="52.4372" x2="59.4268" y2="32.8284" gradientUnits="userSpaceOnUse">
<stop stop-color="#CD10FF"/>
<stop offset="1" stop-color="#9F06FF"/>
</linearGradient>
</defs>
</svg>


